<svg version="1.1" xmlns="http://www.w3.org/2000/svg" viewBox="0 0 614.2054259949591 384" width="614.2054259949591" height="384">
  <!-- svg-source:excalidraw -->
  
  <defs>
    <style>
      @font-face {
        font-family: "Virgil";
        src: url("https://excalidraw.com/Virgil.woff2");
      }
      @font-face {
        font-family: "Cascadia";
        src: url("https://excalidraw.com/Cascadia.woff2");
      }
    </style>
  </defs>
  <g stroke-linecap="round" transform="translate(58.62590728003937 10) rotate(0 81.5 75.5)"><path d="M-1.81 -1.76 C60.85 -1.16, 120.62 -0.71, 163.41 -1.82 M-0.53 0.2 C53.21 0.7, 106.1 0.51, 163.28 -0.11 M161.34 1.04 C162.6 57.28, 164.67 115.61, 163.04 152.52 M163.76 0.1 C162.49 49.22, 161.41 100.85, 162.77 151.28 M164.82 152.83 C107.07 150.22, 49.21 150.74, -0.52 150.45 M162.88 151.66 C122.24 151.82, 80.45 151.39, -0.77 150.3 M0.02 149.64 C-0.31 111.69, -2.9 73.81, 0.4 0.83 M0.25 150.8 C-2.19 94.8, -1.69 36.75, -0.26 0.95" stroke="#000000" stroke-width="1" fill="none"></path></g><g stroke-linecap="round"><g transform="translate(58.62590728003937 35) rotate(0 74.03758062186651 -0.09992473460732754)"><path d="M0.39 -1.12 C25.21 -1.12, 124.32 0.55, 148.95 0.92 M-0.87 0.91 C23.87 0.51, 123.78 -0.46, 148.49 -0.72" stroke="#000000" stroke-width="1" fill="none"></path></g></g><g transform="translate(89.62590728003937 13.5) rotate(0 38 13)"><text x="0" y="18" font-family="Virgil, Segoe UI Emoji" font-size="20px" fill="#000000" text-anchor="start" style="white-space: pre;" direction="ltr">account</text></g><g stroke-linecap="round" transform="translate(379.12590728003937 150) rotate(0 112.5 95)"><path d="M0.65 -1.18 C77.14 1.15, 150.89 0.22, 225.52 -1.28 M-0.23 0.1 C47.59 -1.07, 97.43 -1.01, 225.1 0.18 M225.34 1.43 C222.86 51.6, 222.28 105.23, 226.74 189.76 M225.18 0.57 C225.18 51.94, 224.75 103.13, 224.41 190.95 M223.32 188.57 C154.26 189.68, 85.96 187.13, -1.4 189.21 M225.33 189.32 C160.24 191.29, 95.29 190.89, -0.39 190.69 M-1.49 190.39 C-0.49 147.83, -0.96 104.95, -0.09 -0.19 M-0.45 189.1 C-0.05 128.21, -0.13 66.73, 0.1 0.14" stroke="#000000" stroke-width="1" fill="none"></path></g><g stroke-linecap="round"><g transform="translate(380.12590728003937 179) rotate(0 111.65873037087732 0.4125279750674906)"><path d="M0.46 -0.82 C37.82 -0.53, 187.02 1.34, 224.08 1.65 M-0.76 1.36 C36.54 1.32, 186.58 -0.29, 223.7 -0.13" stroke="#000000" stroke-width="1" fill="none"></path></g></g><g transform="translate(443.12590728003937 153.5) rotate(0 44 13)"><text x="0" y="18" font-family="Virgil, Segoe UI Emoji" font-size="20px" fill="#000000" text-anchor="start" style="white-space: pre;" direction="ltr">payments</text></g><g stroke-linecap="round" transform="translate(175.12590728003937 216) rotate(0 82 79)"><path d="M1.22 1.58 C47.74 0.81, 92.69 -0.81, 163.16 -1.92 M0.84 0.86 C59.54 -1.28, 119.17 -0.3, 163.15 0.21 M163.32 -0.3 C163.12 62.73, 163.41 122.3, 164.78 159.42 M164.41 0.19 C164.01 53.57, 165.05 105.79, 164.18 158.05 M164.69 159.1 C107.11 156.88, 46.8 156.35, 1.62 158.12 M164.08 157.29 C105.8 159.42, 48.43 159.51, -0.62 158.74 M0.6 159.4 C0.16 120.37, -0.02 82.93, -0.4 -1.76 M0.75 158.41 C0.3 105.23, -1 53.49, 0.11 0.79" stroke="#000000" stroke-width="1" fill="none"></path></g><g stroke-linecap="round"><g transform="translate(175.12590728003937 241) rotate(0 74.24515366571953 -0.2733892654460135)"><path d="M0.73 0.95 C25.56 1.03, 124.29 0.66, 148.84 0.4 M-0.35 0.4 C24.41 0.13, 123.73 -1.52, 148.33 -1.51" stroke="#000000" stroke-width="1" fill="none"></path></g></g><g transform="translate(206.12590728003937 219.5) rotate(0 47 13)"><text x="0" y="18" font-family="Virgil, Segoe UI Emoji" font-size="20px" fill="#000000" text-anchor="start" style="white-space: pre;" direction="ltr">transfers</text></g><g transform="translate(191.62590728003937 251) rotate(0 63 13)"><text x="0" y="18" font-family="Virgil, Segoe UI Emoji" font-size="20px" fill="#000000" text-anchor="start" style="white-space: pre;" direction="ltr">from: bob456</text></g><g transform="translate(190.62590728003937 292) rotate(0 57 13)"><text x="0" y="18" font-family="Virgil, Segoe UI Emoji" font-size="20px" fill="#000000" text-anchor="start" style="white-space: pre;" direction="ltr">to: alice123</text></g><g transform="translate(187.62590728003937 331) rotate(0 65.5 13)"><text x="0" y="18" font-family="Virgil, Segoe UI Emoji" font-size="20px" fill="#000000" text-anchor="start" style="white-space: pre;" direction="ltr">amount: 30.0</text></g><g transform="translate(66.62590728003937 43) rotate(0 54 13)"><text x="0" y="18" font-family="Virgil, Segoe UI Emoji" font-size="20px" fill="#000000" text-anchor="start" style="white-space: pre;" direction="ltr">id: alice123</text></g><g transform="translate(65.62590728003937 78) rotate(0 69.5 13)"><text x="0" y="18" font-family="Virgil, Segoe UI Emoji" font-size="20px" fill="#000000" text-anchor="start" style="white-space: pre;" direction="ltr">balance: 100.0</text></g><g transform="translate(62.12590728003937 118) rotate(0 74 13)"><text x="0" y="18" font-family="Virgil, Segoe UI Emoji" font-size="20px" fill="#000000" text-anchor="start" style="white-space: pre;" direction="ltr">currency: "USD"</text></g><g stroke-linecap="round" transform="translate(261.12590728003937 11.5) rotate(0 81.5 75.5)"><path d="M1.11 -1.18 C56.99 0.57, 115.95 0.96, 161.07 -1.36 M0.81 0.82 C58.94 0.89, 117.78 0.69, 162.08 0.55 M163.41 -1.03 C161 41.78, 160.02 84.53, 164.55 152.18 M162.61 0.19 C160.85 52.87, 161.76 105.53, 162.49 150.98 M163.97 151.07 C110.84 148.07, 61.7 150.93, 0.54 150.36 M162.53 151.77 C128.18 152.17, 94.68 151.51, 0.69 151.19 M0.67 151.2 C0.19 102.73, -0.29 55.21, -1.95 -0.49 M-0.75 150.16 C1.03 105.02, 0.49 58.46, -0.21 0.39" stroke="#000000" stroke-width="1" fill="none"></path></g><g stroke-linecap="round"><g transform="translate(261.12590728003937 36.5) rotate(0 73.65806640980765 0.4791081620545725)"><path d="M0.66 -0.71 C25.39 -0.64, 123.09 -0.16, 147.76 -0.01 M-0.45 1.53 C24.15 1.85, 121.9 1.51, 146.69 1.53" stroke="#000000" stroke-width="1" fill="none"></path></g></g><g transform="translate(292.12590728003937 15) rotate(0 38 13)"><text x="0" y="18" font-family="Virgil, Segoe UI Emoji" font-size="20px" fill="#000000" text-anchor="start" style="white-space: pre;" direction="ltr">account</text></g><g transform="translate(269.12590728003937 44.5) rotate(0 50 13)"><text x="0" y="18" font-family="Virgil, Segoe UI Emoji" font-size="20px" fill="#000000" text-anchor="start" style="white-space: pre;" direction="ltr">id: bob456</text></g><g transform="translate(268.12590728003937 79.5) rotate(0 68 13)"><text x="0" y="18" font-family="Virgil, Segoe UI Emoji" font-size="20px" fill="#000000" text-anchor="start" style="white-space: pre;" direction="ltr">balance: 80.0</text></g><g transform="translate(264.62590728003937 119.5) rotate(0 74 13)"><text x="0" y="18" font-family="Virgil, Segoe UI Emoji" font-size="20px" fill="#000000" text-anchor="start" style="white-space: pre;" direction="ltr">currency: "USD"</text></g><g stroke-linecap="round"><g transform="translate(147.36379844200263 288.97418972136086) rotate(0 -68.30191542463575 -116.95428450383993)"><path d="M0.76 0.4 C-10.12 -7.15, -44.38 -25.45, -65.61 -45.9 C-86.84 -66.35, -115.11 -97.61, -126.61 -122.3 C-138.11 -146.99, -138.55 -175.37, -134.61 -194.03 C-130.67 -212.7, -108.16 -227.34, -102.97 -234.3 M-0.3 -0.44 C-11.3 -8.25, -45.33 -26.81, -66.5 -47.46 C-87.66 -68.1, -115.92 -100.04, -127.31 -124.29 C-138.7 -148.54, -139.23 -174.75, -134.83 -192.96 C-130.43 -211.17, -106.3 -226.79, -100.91 -233.56" stroke="#000000" stroke-width="1" fill="none"></path></g><g transform="translate(147.36379844200263 288.97418972136086) rotate(0 -68.30191542463575 -116.95428450383993)"><path d="M-111.86 -210.43 C-107.46 -216.72, -104.98 -224.61, -101.01 -233.96 M-112.48 -210.42 C-108.11 -217.85, -104.92 -226.74, -101.09 -232.89" stroke="#000000" stroke-width="1" fill="none"></path></g><g transform="translate(147.36379844200263 288.97418972136086) rotate(0 -68.30191542463575 -116.95428450383993)"><path d="M-123.88 -223.25 C-116.28 -226.14, -110.54 -230.55, -101.01 -233.96 M-124.5 -223.25 C-115.93 -226.03, -108.47 -230.36, -101.09 -232.89" stroke="#000000" stroke-width="1" fill="none"></path></g></g><g stroke-linecap="round"><g transform="translate(159.41150605096198 253.75582266054727) rotate(0 31.92670932480823 -96.48923050964092)"><path d="M0.73 0.01 C-3.68 -5.53, -27.06 -22.06, -26.55 -34 C-26.03 -45.94, -14.44 -62.65, 3.81 -71.64 C22.06 -80.62, 71.23 -73.63, 82.97 -87.91 C94.7 -102.19, 72.96 -139.99, 74.21 -157.31 C75.46 -174.64, 87.73 -186.15, 90.46 -191.88 M-0.35 -1.03 C-4.93 -6.32, -28.2 -21.06, -27.63 -32.59 C-27.06 -44.13, -15.31 -61.21, 3.09 -70.26 C21.5 -79.31, 71.17 -72.4, 82.82 -86.89 C94.47 -101.38, 71.55 -139.53, 73 -157.22 C74.44 -174.9, 88.49 -187.02, 91.48 -192.99" stroke="#000000" stroke-width="1" fill="none"></path></g><g transform="translate(159.41150605096198 253.75582266054727) rotate(0 31.92670932480823 -96.48923050964092)"><path d="M86.21 -174.57 C87.47 -179.55, 89.61 -186.46, 91.23 -192.18 M85.7 -174.12 C87.31 -178.69, 88.93 -183.83, 91.75 -192.7" stroke="#000000" stroke-width="1" fill="none"></path></g><g transform="translate(159.41150605096198 253.75582266054727) rotate(0 31.92670932480823 -96.48923050964092)"><path d="M75.34 -182.38 C79.73 -185.14, 85.07 -189.75, 91.23 -192.18 M74.83 -181.92 C79.15 -184.51, 83.52 -187.67, 91.75 -192.7" stroke="#000000" stroke-width="1" fill="none"></path></g></g><g transform="translate(390.62590728003937 302) rotate(0 87.5 13)"><text x="0" y="18" font-family="Virgil, Segoe UI Emoji" font-size="20px" fill="#000000" text-anchor="start" style="white-space: pre;" direction="ltr">direction: outgoing</text></g><g stroke-linecap="round"><g transform="translate(341.62590728003937 286) rotate(0 17.414102653302223 -20.122447934374208)"><path d="M0.61 0.53 C6.13 -6.3, 27.62 -34.09, 33.11 -40.77 M-0.52 -0.24 C5.37 -6.95, 29.85 -32.74, 35.35 -39.64" stroke="#000000" stroke-width="2" fill="none"></path></g></g><g transform="translate(395.12590728003937 187) rotate(0 63 13)"><text x="0" y="18" font-family="Virgil, Segoe UI Emoji" font-size="20px" fill="#000000" text-anchor="start" style="white-space: pre;" direction="ltr">from: bob456</text></g><g transform="translate(394.12590728003937 228) rotate(0 57 13)"><text x="0" y="18" font-family="Virgil, Segoe UI Emoji" font-size="20px" fill="#000000" text-anchor="start" style="white-space: pre;" direction="ltr">to: alice123</text></g><g transform="translate(391.12590728003937 267) rotate(0 65.5 13)"><text x="0" y="18" font-family="Virgil, Segoe UI Emoji" font-size="20px" fill="#000000" text-anchor="start" style="white-space: pre;" direction="ltr">amount: 30.0</text></g></svg>